HIERARCHY
ROOT hips
{
  OFFSET 0 9.313263304106702 1.2146308026317778
  CHANNELS 6 Xposition Yposition Zposition Yrotation Xrotation Zrotation
  JOINT spine
  {
    OFFSET -6.402521e-31 0.5173342420023708 0
    CHANNELS 3 Yrotation Xrotation Zrotation
    JOINT chest
    {
      OFFSET 0 1.130544299341115 0
      CHANNELS 3 Yrotation Xrotation Zrotation
      JOINT upperChest
      {
        OFFSET 0 1.0863555061129995 0
        CHANNELS 3 Yrotation Xrotation Zrotation
        JOINT neck
        {
          OFFSET 0 1.3773706506454462 0
          CHANNELS 3 Yrotation Xrotation Zrotation
          JOINT head
          {
            OFFSET 0 0.7374408940073979 0
            CHANNELS 3 Yrotation Xrotation Zrotation
            JOINT leftEye
            {
              OFFSET 0.25066580148932727 0.6408406698778757 0.15963719178883284
              CHANNELS 3 Yrotation Xrotation Zrotation
              End Site
              {
                OFFSET 0.25066580148932727 0.6408406698778757 0.15963719178883284
              }
            }
            JOINT rightEye
            {
              OFFSET -0.25066576739704244 0.6408406384191823 0.15963727561643756
              CHANNELS 3 Yrotation Xrotation Zrotation
              End Site
              {
                OFFSET -0.25066576739704244 0.6408406384191823 0.15963727561643756
              }
            }
          }
        }
        JOINT leftShoulder
        {
          OFFSET 0.3761817444281191 1.0539491987447769 0
          CHANNELS 3 Yrotation Xrotation Zrotation
          JOINT leftUpperArm
          {
            OFFSET 0.8702844380000002 0 0
            CHANNELS 3 Yrotation Xrotation Zrotation
            JOINT leftLowerArm
            {
              OFFSET 2.198527310000323 0 0
              CHANNELS 3 Yrotation Xrotation Zrotation
              JOINT leftHand
              {
                OFFSET 2.146852313968281 0 0
                CHANNELS 3 Yrotation Xrotation Zrotation
                JOINT leftIndexProximal
                {
                  OFFSET 0.6585177834681599 0.07380250427007962 0.18382213159631788
                  CHANNELS 3 Yrotation Xrotation Zrotation
                  JOINT leftIndexIntermediate
                  {
                    OFFSET 0.3323021288626682 -0.009606893929485771 -0.012820872253340998
                    CHANNELS 3 Yrotation Xrotation Zrotation
                    JOINT leftIndexDistal
                    {
                      OFFSET 0.2045908926985518 -0.0071133989147997845 -0.006828784783599051
                      CHANNELS 3 Yrotation Xrotation Zrotation
                      End Site
                      {
                        OFFSET 0.2045908926985518 -0.0071133989147997845 -0.006828784783599051
                      }
                    }
                  }
                }
                JOINT leftLittleProximal
                {
                  OFFSET 0.6110054258835662 0.07380246363125398 -0.29175655876064077
                  CHANNELS 3 Yrotation Xrotation Zrotation
                  JOINT leftLittleIntermediate
                  {
                    OFFSET 0.3144281999999998 -2.5124724523095665e-9 1.8658118799974588e-7
                    CHANNELS 3 Yrotation Xrotation Zrotation
                    JOINT leftLittleDistal
                    {
                      OFFSET 0.18116185580251631 0.002815456192251098 0.0034826415518049436
                      CHANNELS 3 Yrotation Xrotation Zrotation
                      End Site
                      {
                        OFFSET 0.18116185580251631 0.002815456192251098 0.0034826415518049436
                      }
                    }
                  }
                }
                JOINT leftMiddleProximal
                {
                  OFFSET 0.6637478005691111 0.07380246480054087 0.02046981859247815
                  CHANNELS 3 Yrotation Xrotation Zrotation
                  JOINT leftMiddleIntermediate
                  {
                    OFFSET 0.3705733999999994 -2.9611069152224445e-9 9.35054791928458e-8
                    CHANNELS 3 Yrotation Xrotation Zrotation
                    JOINT leftMiddleDistal
                    {
                      OFFSET 0.22861063500000056 -1.82673876025774e-9 -1.6740782024515788e-7
                      CHANNELS 3 Yrotation Xrotation Zrotation
                      End Site
                      {
                        OFFSET 0.22861063500000056 -1.82673876025774e-9 -1.6740782024515788e-7
                      }
                    }
                  }
                }
                JOINT leftRingProximal
                {
                  OFFSET 0.6561845547265777 0.07380246406440083 -0.13588087571513918
                  CHANNELS 3 Yrotation Xrotation Zrotation
                  JOINT leftRingIntermediate
                  {
                    OFFSET 0.3437531000000005 -2.746796123886952e-9 1.4935781944558357e-7
                    CHANNELS 3 Yrotation Xrotation Zrotation
                    JOINT leftRingDistal
                    {
                      OFFSET 0.1983118991198174 -0.002467117924596085 -0.004538141969590015
                      CHANNELS 3 Yrotation Xrotation Zrotation
                      End Site
                      {
                        OFFSET 0.1983118991198174 -0.002467117924596085 -0.004538141969590015
                      }
                    }
                  }
                }
                JOINT leftThumbProximal
                {
                  OFFSET 0.09767004258864787 -0.14930060425447422 -0.07008212897521154
                  CHANNELS 3 Yrotation Xrotation Zrotation
                  JOINT leftThumbIntermediate
                  {
                    OFFSET 0.36682123028154767 -0.015768465060082004 0.28693641268151077
                    CHANNELS 3 Yrotation Xrotation Zrotation
                    JOINT leftThumbDistal
                    {
                      OFFSET 0.21091084272403915 -0.016756648201192714 0.1933767059105508
                      CHANNELS 3 Yrotation Xrotation Zrotation
                      End Site
                      {
                        OFFSET 0.21091084272403915 -0.016756648201192714 0.1933767059105508
                      }
                    }
                  }
                }
              }
            }
          }
        }
        JOINT rightShoulder
        {
          OFFSET -0.37618174442811925 1.0539491987447769 0
          CHANNELS 3 Yrotation Xrotation Zrotation
          JOINT rightUpperArm
          {
            OFFSET -0.870284438 0 0
            CHANNELS 3 Yrotation Xrotation Zrotation
            JOINT rightLowerArm
            {
              OFFSET -2.1985273100003235 0 0
              CHANNELS 3 Yrotation Xrotation Zrotation
              JOINT rightHand
              {
                OFFSET -2.1468523139682802 0 0
                CHANNELS 3 Yrotation Xrotation Zrotation
                JOINT rightIndexProximal
                {
                  OFFSET -0.6585177834681599 0.07380250427007962 0.18382213159631788
                  CHANNELS 3 Yrotation Xrotation Zrotation
                  JOINT rightIndexIntermediate
                  {
                    OFFSET -0.3323021288626682 -0.009606893929485771 -0.012820872253340998
                    CHANNELS 3 Yrotation Xrotation Zrotation
                    JOINT rightIndexDistal
                    {
                      OFFSET -0.2045908926985518 -0.0071133989147997845 -0.006828784783599051
                      CHANNELS 3 Yrotation Xrotation Zrotation
                      End Site
                      {
                        OFFSET -0.2045908926985518 -0.0071133989147997845 -0.006828784783599051
                      }
                    }
                  }
                }
                JOINT rightLittleProximal
                {
                  OFFSET -0.6110054258835662 0.07380246363125398 -0.29175655876064077
                  CHANNELS 3 Yrotation Xrotation Zrotation
                  JOINT rightLittleIntermediate
                  {
                    OFFSET -0.3144281999999998 -2.5124724523095665e-9 1.8658118799974588e-7
                    CHANNELS 3 Yrotation Xrotation Zrotation
                    JOINT rightLittleDistal
                    {
                      OFFSET -0.18116185580251631 0.002815456192251098 0.0034826415518049436
                      CHANNELS 3 Yrotation Xrotation Zrotation
                      End Site
                      {
                        OFFSET -0.18116185580251631 0.002815456192251098 0.0034826415518049436
                      }
                    }
                  }
                }
                JOINT rightMiddleProximal
                {
                  OFFSET -0.6637478005691111 0.07380246480054087 0.02046981859247815
                  CHANNELS 3 Yrotation Xrotation Zrotation
                  JOINT rightMiddleIntermediate
                  {
                    OFFSET -0.3705733999999994 -2.9611069152224445e-9 9.35054791928458e-8
                    CHANNELS 3 Yrotation Xrotation Zrotation
                    JOINT rightMiddleDistal
                    {
                      OFFSET -0.22861063500000056 -1.82673876025774e-9 -1.6740782024515788e-7
                      CHANNELS 3 Yrotation Xrotation Zrotation
                      End Site
                      {
                        OFFSET -0.22861063500000056 -1.82673876025774e-9 -1.6740782024515788e-7
                      }
                    }
                  }
                }
                JOINT rightRingProximal
                {
                  OFFSET -0.6561845547265777 0.07380246406440083 -0.13588087571513918
                  CHANNELS 3 Yrotation Xrotation Zrotation
                  JOINT rightRingIntermediate
                  {
                    OFFSET -0.3437531000000005 -2.746796123886952e-9 1.4935781944558357e-7
                    CHANNELS 3 Yrotation Xrotation Zrotation
                    JOINT rightRingDistal
                    {
                      OFFSET -0.1983118991198174 -0.002467117924596085 -0.004538141969590015
                      CHANNELS 3 Yrotation Xrotation Zrotation
                      End Site
                      {
                        OFFSET -0.1983118991198174 -0.002467117924596085 -0.004538141969590015
                      }
                    }
                  }
                }
                JOINT rightThumbProximal
                {
                  OFFSET -0.09767004258864787 -0.14930060425447422 -0.07008212897521154
                  CHANNELS 3 Yrotation Xrotation Zrotation
                  JOINT rightThumbIntermediate
                  {
                    OFFSET -0.36682123028154767 -0.015768465060082004 0.28693641268151077
                    CHANNELS 3 Yrotation Xrotation Zrotation
                    JOINT rightThumbDistal
                    {
                      OFFSET -0.21091084272403915 -0.016756648201192714 0.1933767059105508
                      CHANNELS 3 Yrotation Xrotation Zrotation
                      End Site
                      {
                        OFFSET -0.21091084272403915 -0.016756648201192714 0.1933767059105508
                      }
                    }
                  }
                }
              }
            }
          }
        }
      }
    }
  }
  JOINT leftUpperLeg
  {
    OFFSET 0.7715603 -0.3993844658041501 0
    CHANNELS 3 Yrotation Xrotation Zrotation
    JOINT leftLowerLeg
    {
      OFFSET 0 -3.529830000249343 0
      CHANNELS 3 Yrotation Xrotation Zrotation
      JOINT leftFoot
      {
        OFFSET 0 -4.154939295409685 0.004208579085223096
        CHANNELS 3 Yrotation Xrotation Zrotation
        JOINT leftToes
        {
          OFFSET 0 -0.6353414391261847 1.10414981190622
          CHANNELS 3 Yrotation Xrotation Zrotation
          End Site
          {
            OFFSET 0 -0.6015820691747853 1.10414981190622
          }
        }
      }
    }
  }
  JOINT rightUpperLeg
  {
    OFFSET -0.7715603 -0.3993844658041501 0
    CHANNELS 3 Yrotation Xrotation Zrotation
    JOINT rightLowerLeg
    {
      OFFSET 0 -3.529830000249343 0
      CHANNELS 3 Yrotation Xrotation Zrotation
      JOINT rightFoot
      {
        OFFSET 0 -4.154939295409685 0.004208579085223096
        CHANNELS 3 Yrotation Xrotation Zrotation
        JOINT rightToes
        {
          OFFSET 0 -0.6353414391261847 1.10414981190622
          CHANNELS 3 Yrotation Xrotation Zrotation
          End Site
          {
            OFFSET 0 -0.6015820691747853 1.10414981190622
          }
        }
      }
    }
  }
}
MOTION
Frames: 4
Frame Time: 0.03333333333333333
2.6215297525579278 8.724858544089576 1.2427170886699381 1.1331792791909419 -6.154887977927159 5.65586381959978 0.21402778284169136 0.5009741852540855 -3.1489859491542 1.0697025072623039 1.342125027175878 3.6077466923763097 0 0 0 -7.277918779823878 6.127493682953044 -3.396508897217926 -28.251308067821384 -18.4231632689289 -9.912847477052853 0 0 0 0 0 0 -7.942033776728825 -0.2545673240022141 -21.175673374009968 -3.4880949719792125 14.36159091606384 -50.19601725525662 -17.63374294915945 -0.00003430045980719804 0.000006170879420540054 10.60995029487282 -26.559745579336 -11.766385476704086 -2.6872534444805267 -0.9921424557838308 -38.03905006186123 5.7803499121776625 4.770482041050146 -79.03103133950391 3.133975925571595 0.9104388168695317 -32.32847642527031 20.409109885389068 6.761242668119797 -60.757601939944685 5.645871538023309 6.136132926559777 -90.4317800813049 3.102439405595407 1.0190055650073717 -32.325585514347985 6.869457423537232 2.171440335019012 -50.1237456540955 5.777388093535037 4.762438998568548 -79.03116044862938 3.143717582139978 0.9113772327000235 -32.32847324653766 10.401181887312312 7.741031467206428 -57.788272926841536 5.781796355524524 4.808327502515032 -79.46753808468608 3.1411696426368176 0.9110020584618559 -32.326048561061675 4.054972720161391 -8.746150256930447 12.106615874591503 21.21374200641291 6.419806792606782 4.5631400514323115 11.423136145456555 -5.521931448741963 15.022488967074782 -0.005429083422139524 4.510447649885616 3.0524699384125578 -4.572361986960441 -35.62659177725822 54.23962820750788 107.0447685161125 0.00002480860009400769 0.000009596036161003266 19.552833901357857 -58.24109721890631 6.568092227177234 -8.67796363208551 4.529720059960605 8.02430590754023 -0.8916537600255634 0.08965598111985945 11.376220916122628 0.21349171034013595 0.005367042095467915 -2.7455551802601903 0.6250672725412811 -5.179691273684517 6.133112723196778 -0.7256707775950879 0.04511116964296862 10.120359159823089 0.1665809988913188 0.010131542648592118 -2.745529006470212 -4.043982601103312 0.29035167721034455 10.182090159551379 -0.7269008131384759 0.0662002425475831 10.163327924708215 0.1867013360946399 0.0054931854847414694 -2.7456282577007465 -3.029354425238636 0.10809272360391707 8.824825009522675 -0.8488516955683539 0.07455308329322077 10.16173846343959 0.21082655612033677 0.004380160214979693 -2.746970727758138 7.489541173040886 -6.5807898517674674 -5.092145899715305 -55.0029803108133 6.292353191552901 -12.976629284537879 -15.277539563686085 -4.137261193204895 -15.666915160727415 13.720187616380262 1.60140942100765 -12.257213763508576 0.7209285518606858 19.551367170390744 6.3216321826283774 -6.415303799706432 -14.129028970272843 3.7969307433675854 0.000004903353159483781 -2.0861488133767256 -0.000001657055369472829 -4.080873553677084 -5.759151614401207 -21.999446145670497 -0.17096512892095664 24.717470652942623 3.9012712942643635 -4.019287109957717 -10.519132063222207 3.3077254765179873 -0.000002089368003858107 -7.6996599537183466 0.000005923662834183119
2.5947575135664502 8.728078495372424 1.2504437623840774 0.9190862657712855 -6.11590163658427 5.577523212379261 0.23921150842138297 0.5473339543438239 -3.105560802387998 1.10899507106867 1.3984447325910712 3.6350388830763274 0 0 0 -7.293249160090278 6.0562902767030975 -3.345045537414413 -28.543414114812546 -18.562932455887523 -9.408200604208108 0 0 0 0 0 0 -7.88006085491238 -0.24939916869552115 -21.206977559955632 -3.6531256390804097 14.269233136314849 -50.113368044173036 -17.67542309926015 -0.000028663154718240416 -0.000010830841275871648 10.515019525878369 -26.11172875988171 -11.591116836943053 -2.687248326704548 -0.9921401075542559 -38.0390548566535 5.78035110971017 4.77048546801631 -79.03101302455858 3.1339767781759735 0.9104392438102544 -32.32847642527031 20.409111496955607 6.761243527872704 -60.757601939944685 5.645875383398273 6.1361415134931505 -90.4317801330732 3.1024353554737294 1.0190020426340232 -32.32561013785584 6.869456575283528 2.171446315729134 -50.123753090659314 5.777380077150579 4.762433429813751 -79.0311688594267 3.143714811200773 0.9113718959396048 -32.32844862377918 10.401188441812572 7.741037498585995 -57.788272926841536 5.78180189632137 4.808333071643262 -79.46752966115304 3.141164740194553 0.9110078221625166 -32.32603913588026 4.054975060794402 -8.74614248256529 12.106610082274859 21.21374200641291 6.419806792606782 4.5631400514323115 11.423136145456555 -5.521931448741963 15.022488967074782 0.05972622931226114 4.5162388255176875 3.119529449151177 -5.352166639430202 -35.74891923442104 54.294170513821435 107.04367793542404 0.000014458055347471719 0.000002665719058508139 22.291860449691047 -58.34181551741284 2.5985546805447743 -7.41438808754936 4.781687883529295 2.260161976278997 -0.32889794451745236 0.012962048303864606 4.400670289630605 0.8824106435785186 0.08619910091591146 -11.022746627409546 0.36423663379315524 -6.328916044332396 0.13666567011244776 -0.16841744143911816 -0.0013640393034379773 3.256565931377131 0.8337728852855157 0.10518199075878408 -11.022593269001652 -3.8120938877745805 0.15145137696256944 4.333219341509957 -0.1694838634900922 0.00535751760006687 3.2767976771796126 0.8555667066055043 0.08668553233436196 -11.022766554915721 -2.8746224587966283 0.07249491348188723 2.9569885758519723 -0.2917187026270262 0.008019602607132572 3.2708946012589797 0.8800275178427407 0.08221544881031305 -11.023244629949238 7.489541173040886 -6.580790281485597 -5.092130490918287 -54.88327719715747 6.300963360694116 -12.949579993177712 -15.285386829843798 -4.136325153023839 -15.668121181985015 13.7752118507291 1.5621287619753237 -11.978451820351383 0.8431470270786273 19.533220756924017 6.377024335909739 -6.380886268229086 -14.175139696823654 3.5465074656194515 0.000004830544802724272 -2.0861488133767256 -1.620792094000894e-7 -4.00256936199917 -5.758288361499132 -21.709622417606194 -0.07211845206648079 24.731825408494217 3.9443947220091027 -4.018195425912544 -10.630174625464011 3.231981871805661 -4.017082901583793e-7 -7.627063204880487 -6.210488815278733e-7
2.5624450770291416 8.73194781216708 1.2586556703994152 0.7156987005945808 -6.050566679854113 5.466574058335387 0.22630534758485432 0.6062185606062089 -3.0530613923105063 1.1004433472947217 1.4740039644348166 3.663451321241528 0 0 0 -7.299046838229756 5.9664411035360905 -3.260436505351102 -28.742080651643384 -18.791106954873715 -8.908741560643005 0 0 0 0 0 0 -7.8191047198177515 -0.24427223705144202 -21.23754203272943 -3.84821745458862 14.15806665717425 -50.02551768030656 -17.65251319515531 -0.00002164534763001107 0.000004034698391613401 10.442664894418487 -25.833830122367765 -11.533670639651438 -2.6872528047585313 -0.9921305011605579 -38.03906713633867 5.780341814517686 4.770474758747104 -79.03103133950391 3.1339886882167636 0.9104338003160445 -32.32849633538775 20.409102239867103 6.761255564413556 -60.75760211954727 5.6458728198149695 6.136127774399821 -90.43176059835324 3.1024458005243076 1.0190034302356448 -32.32560725156621 6.869452334014966 2.1714531508264443 -50.123772345983326 5.77738851972492 4.762440712031572 -79.03115138577333 3.1437054326372 0.9113770192296066 -32.328453336414945 10.401182734779503 7.741041806714311 -57.788260504435115 5.781806158472717 4.808333928432224 -79.46753745822743 3.1411560010582287 0.9110144397447681 -32.32602393833038 4.054970321686968 -8.746133844381973 12.106605979171036 21.21374200641291 6.419806792606782 4.5631400514323115 11.423136145456555 -5.521931448741963 15.022488967074782 0.14000228525244662 4.530284459915237 3.278539532265016 -5.87530016553586 -35.74644921660332 54.31644887536568 107.04760587995169 0.00000956901701820668 -0.0000033567716597015648 26.4994279466613 -64.68670419813732 6.139276869998819 -6.892049251457789 4.99368463704612 -0.5036901063013258 -0.05957033910097061 0.0006586469727804378 1.0909968401533545 1.194102373926662 0.1581081409733591 -14.94937137014054 0.3930524834352611 -6.936608468051534 -2.7405185931969296 0.09699429517889191 0.0000013895392527882462 -7.202465309480195e-8 1.14395457348661 0.18371608839989856 -14.94908926077496 -3.6978871700548073 0.08586022576752404 1.55823724640708 0.09662040288531498 0.000008799534075901098 0.009432284385273918 1.1672261486173237 0.15877176575766547 -14.949364771099527 -2.77782633688068 0.04965193965396697 0.17179717818933013 -0.025510264317476435 -0.0000022562527185947816 0.0015387407551155205 1.1920069846058388 0.15272681256183218 -14.94941503267478 7.489554402696927 -6.580810048519997 -5.092155621329126 -54.82647909954563 6.305018968199181 -12.93673430205114 -15.289094086025113 -4.1358800314235955 -15.668716773801478 13.839595246326589 1.4733837061664896 -11.62675684358627 0.9403214513724766 19.535619626586996 6.419993104001593 -6.341866672569128 -14.226124317593277 3.2581108356643567 5.55880048879731e-7 -2.0861488133767256 6.415379157012879e-7 -3.92132935030697 -5.761489097035597 -21.33887025914709 -0.00569261463735528 24.73500074772343 3.972342304532141 -4.01766885537044 -10.752666035908328 3.1534638994571154 -0.000007138781505006638 -7.536128527862448 -0.000006698799102196148
2.524702115492387 8.736287897283379 1.2672463252927701 0.5090471675954898 -5.965185660206866 5.318351531600129 0.17862241963155112 0.6730636547613141 -2.9884696549478886 1.0469628864619802 1.5635270162792465 3.7066181490514203 0 0 0 -7.307071924020722 5.871652659266423 -3.145138836872293 -28.919838982436932 -19.082525642580876 -8.396917388069335 0 0 0 0 0 0 -7.757399178746953 -0.23902681855782104 -21.268180216735946 -4.033363488790889 14.031054510801665 -49.95008380734122 -17.578307756869066 -0.00002425730992018195 0.000003254672902871842 10.414867495975779 -25.75678556570385 -11.5912462660852 -2.687251951795871 -0.992138293013222 -38.039074035823546 5.7803540930586905 4.770481612679377 -79.03103133950391 3.133978456963742 0.9104443670989302 -32.32847642527031 20.409106662255887 6.761264591819392 -60.75759875959497 5.645864701801022 6.136132497213112 -90.4317801081383 3.1024419635669767 1.0189998011237122 -32.32559965254403 6.869446820365721 2.1714653258436063 -50.123782405281965 5.777377946201219 4.762423149035783 -79.03115203783254 3.1437067115322423 0.9113829964012844 -32.328453336414945 10.401179344910702 7.741040945088644 -57.78829777165398 5.781801470106232 4.808339497560506 -79.46753745822743 3.1411626086979023 0.9110031258138295 -32.326043848470874 4.054972906654666 -8.746125206198856 12.106605979171036 21.21374200641291 6.419806792606782 4.5631400514323115 11.423136145456555 -5.521931448741963 15.022488967074782 0.2627961204210027 4.546922894658184 3.4741926240303376 -5.985376879290529 -35.5312706610832 54.265094637026905 107.05388056487773 0.000017867082350145742 -0.000008856682689528528 28.53792295878818 -72.33194606857865 15.868825938411529 -7.181392786851796 4.932418222834552 0.46445930816476405 -0.15419399007017703 0.0031900331000196324 2.252884902558737 1.088008426058891 0.13109086789525284 -13.605676544952917 0.4734972195577364 -6.633284851612251 -1.8430351766306792 0.011311811143592256 -0.002100869097427322 1.0516124601754757 1.0384283263553529 0.15444019568314515 -13.605529508483581 -3.798932932810637 0.11005743374700826 2.4623233928314674 0.00398699035319074 0.00014486826696024393 1.1466310761650365 1.061120193226745 0.131717325955727 -13.60568647630327 -2.834870019708258 0.05748422239008397 1.0445064553748467 -0.11824857628465751 0.0010606363723804865 1.1398296104867007 1.0857965081067888 0.1261902081525586 -13.605911869030495 7.4895369125201645 -6.580802743311541 -5.092153481218409 -55.06618246841305 6.287789189792918 -12.990926124944199 -15.273416970507226 -4.137738415762244 -15.666252304286145 13.957904610526708 1.3407617106373961 -11.187748483267422 0.9778308914323994 19.574307230514126 6.43649313020507 -6.297888714850015 -14.290120610188648 2.940306873374345 -0.000001963155249967533 -2.0861488133767256 1.8400896216410672e-7 -3.8041047404194273 -5.766897351365564 -20.8791686875651 0.002531845269152705 24.74844936807413 3.9747088751053403 -4.010696076850664 -10.89108698207475 3.048244666098348 -0.0000059663196426242004 -7.4410688085614884 -0.0000036608280855382326
